<?xml version="1.0" encoding="UTF-8"?>
<svg id="Layer_1" data-name="Layer 1" xmlns="http://www.w3.org/2000/svg" viewBox="0 0 708.66 396.85">
  <defs>
    <style>
      .cls-1, .cls-2 {
        fill: #231f20;
      }

      .cls-2 {
        stroke: #231f20;
        stroke-miterlimit: 10;
        stroke-width: .5px;
      }

      .cls-3 {
        fill: #f15a5f;
      }
    </style>
  </defs>
  <g>
    <path class="cls-2" d="M79.35,69.47v74.66c0,15.82-8.53,24-22.93,25.78v16.71h-15.29v-16.53c-14.93-1.78-23.64-9.95-23.64-25.95v-74.66c0-18.49,11.38-26.31,30.22-26.31h1.42c18.84,0,30.22,8,30.22,26.31ZM62.64,72.67c0-11.02-4.98-14.76-14.22-14.76s-14.22,3.73-14.22,14.76v68.26c0,11.02,4.98,14.76,14.22,14.76s14.22-3.73,14.22-14.76v-68.26Z"/>
    <path class="cls-2" d="M164.62,144.13c0,18.67-11.02,26.31-29.86,26.31h-.71c-18.84,0-29.86-7.47-29.86-26.31V44.58h16.71v96.35c0,11.02,4.26,14.76,13.51,14.76s13.51-3.73,13.51-14.76V44.58h16.71v99.55Z"/>
    <path class="cls-2" d="M190.17,169.02V44.58h52.44v14.76h-35.73v39.11h30.22v14.93h-30.22v40.88h36.26v14.76h-52.97Z"/>
    <path class="cls-2" d="M298.2,44.58h51.73v14.76h-35.02v40h29.51v14.93h-29.51v54.75h-16.71V44.58Z"/>
    <path class="cls-2" d="M398.58,43.16h1.42c18.84,0,30.22,8,30.22,26.31v74.66c0,18.31-11.38,26.31-30.22,26.31h-1.42c-18.84,0-30.22-8-30.22-26.31v-74.66c0-18.49,11.38-26.31,30.22-26.31ZM399.29,155.69c9.24,0,14.22-3.73,14.22-14.76v-68.26c0-11.02-4.98-14.76-14.22-14.76s-14.22,3.73-14.22,14.76v68.26c0,11.02,4.98,14.76,14.22,14.76Z"/>
    <path class="cls-2" d="M503.94,169.02l-17.24-51.02h-14.58v51.02h-16.71V44.58h31.11c18.84,0,30.22,8,30.22,26.31v20.8c0,12.44-5.33,20.09-14.58,23.82l18.84,53.51h-17.07ZM472.13,103.42h13.69c9.24,0,14.22-3.73,14.22-14.75v-14.58c0-11.02-4.98-14.76-14.22-14.76h-13.69v44.08Z"/>
    <path class="cls-1" d="M583.89,91.69v-19.02c0-10.84-4.62-14.76-13.69-14.76s-13.69,3.91-13.69,14.76v68.26c0,10.84,4.62,14.76,13.69,14.76s13.69-3.91,13.69-14.76v-22.04h16.71v25.24c0,16.71-9.24,24.71-24.71,26.13v7.29c0,12.09-4.8,15.64-13.86,15.64-3.56,0-7.29-.71-9.78-1.96l-2.49-9.6h8.36c3.73,0,4.98-1.07,4.98-4.8v-6.75c-14.58-1.78-23.29-9.6-23.29-25.95v-74.66c0-17.95,11.38-26.31,30.22-26.31h.35c18.84,0,30.22,8.36,30.22,26.31v22.22h-16.71Z"/>
    <path class="cls-2" d="M664.89,139.69h-26.66l-5.33,29.33h-16.18l24.71-124.43h20.62l25.07,124.43h-17.07l-5.16-29.33ZM662.23,125.64l-10.67-60.08-10.84,60.08h21.51Z"/>
    <path class="cls-3" d="M59.32,69.93v71.01c0,3.59-.59,6.3-1.75,8.05l-1.9,2.89,20.57,12.41,1.76-2.63c3.1-4.63,4.67-10.52,4.67-17.52v-78.68l-23.35,4.47Z"/>
    <rect class="cls-3" x="144.59" y="40.98" width="23.35" height="80.55"/>
    <rect class="cls-3" x="203.56" y="95.13" width="36.86" height="21.57"/>
    <rect class="cls-3" x="294.88" y="41.26" width="58.37" height="21.39"/>
    <path class="cls-3" d="M410.2,104.37v36.56c0,9.56-4,11.44-10.9,11.44h-3.32v21.39h4.03c21.63,0,33.54-10.52,33.54-29.63v-39.76h-23.35Z"/>
    <path class="cls-2" d="M583.89,91.69v-19.02c0-10.84-4.62-14.76-13.69-14.76s-13.69,3.91-13.69,14.76v68.26c0,10.84,4.62,14.76,13.69,14.76s13.69-3.91,13.69-14.76v-22.04h16.71v25.24c0,16.71-9.24,24.71-24.71,26.13v7.29c0,12.09-4.8,15.64-13.86,15.64-3.56,0-7.29-.71-9.78-1.96l-2.49-9.6h8.36c3.73,0,4.98-1.07,4.98-4.8v-6.75c-14.58-1.78-23.29-9.6-23.29-25.95v-74.66c0-17.95,11.38-26.31,30.22-26.31h.35c18.84,0,30.22,8.36,30.22,26.31v22.22h-16.71Z"/>
    <path class="cls-3" d="M482.96,120.89v-20.25h3.13c.7,0,.95-.03,1.48-.09l.33-.03c4.16-.45,6.93-2.04,7.89-5.5l.64-2.3,23.8.09c0,24.1-10.85,28.08-37.27,28.08Z"/>
    <path class="cls-3" d="M570.2,39.84v3.32h0v14.75h0v3.32c6.72,0,10.37,1.82,10.37,11.44v22.34h23.35v-25.54c0-19.11-11.97-29.63-33.72-29.63Z"/>
    <polygon class="cls-3" points="674.26 88.37 652.24 88.37 667.27 172.34 691.17 172.34 674.26 88.37"/>
  </g>
  <g>
    <path class="cls-2" d="M118.92,352.26v-124.43h52.44v14.76h-35.73v39.11h30.22v14.93h-30.22v40.88h36.26v14.76h-52.97ZM168.87,194.06l-19.55,24h-12.44l12.44-24h19.55Z"/>
    <path class="cls-1" d="M226.95,352.26v-124.43h52.44v14.76h-35.73v39.11h30.22v14.93h-30.22v40.88h36.26v14.76h-52.97Z"/>
    <path class="cls-2" d="M341.56,271.74v-16.89c0-9.95-4.8-13.86-13.33-13.86s-13.33,3.91-13.33,13.86v8.53c0,7.47,2.67,10.13,9.78,14.22l16.18,8.89c10.67,6.04,17.42,12.09,17.42,24v17.24c0,18.67-10.84,25.95-29.69,25.95h-.36c-18.84,0-29.69-7.11-29.69-25.95v-21.16h16.35v18.31c0,9.78,4.8,14.22,13.51,14.22s13.51-4.44,13.51-14.22v-9.78c0-7.47-2.67-10.67-9.96-14.76l-16-8.89c-11.38-6.58-17.42-11.91-17.42-23.82v-15.64c0-17.96,12.44-25.6,29.51-25.6h.36c17.06,0,29.51,7.64,29.51,25.6v19.73h-16.35Z"/>
    <path class="cls-2" d="M421.85,271.74v-16.89c0-9.95-4.8-13.86-13.33-13.86s-13.33,3.91-13.33,13.86v8.53c0,7.47,2.67,10.13,9.78,14.22l16.18,8.89c10.67,6.04,17.42,12.09,17.42,24v17.24c0,18.67-10.84,25.95-29.69,25.95h-.36c-18.84,0-29.69-7.11-29.69-25.95v-21.16h16.35v18.31c0,9.78,4.8,14.22,13.51,14.22s13.51-4.44,13.51-14.22v-9.78c0-7.47-2.67-10.67-9.96-14.76l-16-8.89c-11.38-6.58-17.42-11.91-17.42-23.82v-15.64c0-17.96,12.44-25.6,29.51-25.6h.36c17.06,0,29.51,7.64,29.51,25.6v19.73h-16.35Z"/>
    <path class="cls-2" d="M501.26,322.93h-26.66l-5.33,29.33h-16.18l24.71-124.43h20.62l25.07,124.43h-17.07l-5.16-29.33ZM498.6,308.89l-10.67-60.08-10.84,60.08h21.51Z"/>
    <path class="cls-2" d="M554.19,303.03c0-8.71,3.38-15.64,11.38-22.93,4.09-3.56,8-8.18,8-14.4v-11.56c0-10.67-4.62-13.69-12.44-13.69s-11.91,3.02-11.91,13.69v17.6h-16v-19.73c0-17.96,9.24-25.6,28.08-25.6h.36c18.84,0,28.09,7.64,28.09,25.6v14.58c0,13.51-6.93,18.84-12.27,23.29-5.87,4.8-10.13,9.6-10.13,18.13v12.62h-13.15v-17.6ZM569.12,352.26h-16.71v-19.55h16.71v19.55Z"/>
    <rect class="cls-3" x="115.6" y="224.51" width="59.08" height="21.39"/>
    <rect class="cls-3" x="223.63" y="334.19" width="59.61" height="21.39"/>
    <path class="cls-3" d="M328.4,223.09h-3.28l-.26,21.22h3.36c7.2,0,10.01,2.96,10.01,10.54v20.21h22.99v-23.05c0-18.38-11.96-28.92-32.83-28.92Z"/>
    <path class="cls-3" d="M422.78,283.6l-2.74-1.55-12.49,19.48,3.07,1.72c6.64,3.73,8.26,6.05,8.26,11.86v9.78c0,7.64-3.05,10.9-10.19,10.9h-3.28l-.26,21.22h3.72c21.9,0,33.01-9.85,33.01-29.27v-17.24c0-13.33-7.64-20.39-19.1-26.88Z"/>
    <polygon class="cls-3" points="501.14 224.51 484.51 224.51 484.61 248.82 491.84 289.82 514.29 289.82 501.14 224.51"/>
    <path class="cls-3" d="M570.42,263.26l-.2,3.11c-.24,3.81-2.41,7.37-6.89,11.27-8.62,7.85-12.46,15.68-12.46,25.39v20.92h19.79v-15.94c0-6.95,3.14-10.83,8.94-15.58l.49-.41c5.48-4.55,12.98-10.77,12.98-25.43v-3.32h-22.64Z"/>
  </g>
</svg>