<?xml version="1.0" encoding="UTF-8"?>
<svg id="Layer_1" data-name="Layer 1" xmlns="http://www.w3.org/2000/svg" viewBox="0 0 1275.59 311.81">
  <defs>
    <style>
      .cls-1 {
        fill: #231f20;
      }

      .cls-2 {
        fill: #211e1f;
        stroke: #211f1f;
      }

      .cls-2, .cls-3, .cls-4, .cls-5 {
        stroke-miterlimit: 10;
      }

      .cls-2, .cls-3, .cls-5 {
        stroke-width: .5px;
      }

      .cls-3 {
        fill: #262324;
        stroke: #262223;
      }

      .cls-4, .cls-5 {
        fill: #262223;
        stroke: #231f20;
      }

      .cls-6 {
        fill: #bdb9b9;
      }

      .cls-7 {
        fill: #383234;
      }

      .cls-8 {
        fill: #e6e7e8;
      }

      .cls-9 {
        fill: #f15a5f;
      }
    </style>
  </defs>
  <g>
    <rect class="cls-6" x="6.53" y="6.5" width="1262.57" height="299.08"/>
    <path class="cls-7" d="M1266.6,8.99v294.08H9.03V8.99h1257.56M1271.6,3.99H4.03v304.08h1267.56V3.99h0Z"/>
  </g>
  <path class="cls-9" d="M1271.6,4v303.8H4.03V4h1267.56M1275.6,0H.03v311.8h1275.56V0h0Z"/>
  <path class="cls-1" d="M1266.6,8.99v294.08H9.03V8.99h1257.56M1271.6,3.99H4.03v304.08h1267.56V3.99h0Z"/>
  <rect class="cls-1" x="4.03" y="222.86" width="1267.57" height="85.04"/>
  <g>
    <path class="cls-8" d="M336.45,254.86h7.92c5.13,0,7.59,2.61,7.59,6.66,0,3.09-1.5,5.4-4.62,6.21l4.8,8.13h-3.12l-4.53-7.74h-4.92v7.74h-3.12v-21ZM348.78,261.52c0-2.49-1.5-3.93-4.53-3.93h-4.68v7.8h4.68c3.03,0,4.53-1.44,4.53-3.87Z"/>
    <path class="cls-8" d="M354.75,254.86h13.65v2.73h-10.53v6.3h9.63v2.49h-9.63v6.75h10.83v2.73h-13.95v-21Z"/>
    <path class="cls-8" d="M370.41,254.86h3.27l6.48,17.73h.18l6.48-17.73h3.27l-7.89,21h-3.9l-7.89-21Z"/>
    <path class="cls-8" d="M392.55,254.86h3.12v21h-3.12v-21Z"/>
    <path class="cls-8" d="M398.55,269.5h3.18c.12,2.25,1.62,4.02,5.1,4.02,3.12,0,4.74-1.38,4.74-3.54s-1.47-2.94-3.78-3.39l-2.82-.57c-3.57-.72-5.82-2.4-5.82-5.64,0-3.63,2.79-5.79,7.53-5.79s7.56,2.19,7.56,5.88h-3.18c-.03-1.98-1.56-3.24-4.44-3.24-3.03,0-4.23,1.41-4.23,3.15,0,1.47.9,2.61,3.39,3.12l2.7.54c4.2.84,6.36,2.55,6.36,5.91,0,4.08-3.21,6.21-8.04,6.21-5.31,0-8.25-2.61-8.25-6.66Z"/>
    <path class="cls-8" d="M422.4,257.65h-6.45v-2.79h16.02v2.79h-6.45v18.21h-3.12v-18.21Z"/>
    <path class="cls-8" d="M438.27,254.86h3.9l7.89,21h-3.27l-1.77-4.83h-9.6l-1.77,4.83h-3.27l7.89-21ZM444.15,268.66l-3.84-10.53h-.18l-3.84,10.53h7.86Z"/>
    <path class="cls-8" d="M458.82,269.5h3.18c.12,2.25,1.62,4.02,5.1,4.02,3.12,0,4.74-1.38,4.74-3.54s-1.47-2.94-3.78-3.39l-2.82-.57c-3.57-.72-5.82-2.4-5.82-5.64,0-3.63,2.79-5.79,7.53-5.79s7.56,2.19,7.56,5.88h-3.18c-.03-1.98-1.56-3.24-4.44-3.24-3.03,0-4.23,1.41-4.23,3.15,0,1.47.9,2.61,3.39,3.12l2.7.54c4.2.84,6.36,2.55,6.36,5.91,0,4.08-3.21,6.21-8.04,6.21-5.31,0-8.25-2.61-8.25-6.66Z"/>
    <path class="cls-8" d="M477.57,265.36c0-6.78,4.02-10.77,9.69-10.77s9.66,3.99,9.66,10.77-4.02,10.8-9.66,10.8-9.69-4.02-9.69-10.8ZM493.74,265.36c0-5.22-2.64-8.07-6.48-8.07s-6.51,2.85-6.51,8.07,2.64,8.1,6.51,8.1,6.48-2.88,6.48-8.1Z"/>
    <path class="cls-8" d="M499.83,254.86h8.01c4.47,0,6.48,2.1,6.48,5.13,0,2.22-1.05,3.69-2.91,4.35,2.73.75,4.29,2.58,4.29,5.43,0,3.48-2.43,6.09-7.68,6.09h-8.19v-21ZM511.11,260.38c0-1.89-1.26-2.88-3.48-2.88h-4.68v5.85h4.68c2.22,0,3.48-1.02,3.48-2.97ZM512.4,269.56c0-2.1-1.41-3.57-4.56-3.57h-4.89v7.2h4.89c3.15,0,4.56-1.53,4.56-3.63Z"/>
    <path class="cls-8" d="M518.31,254.86h7.92c5.13,0,7.59,2.61,7.59,6.66,0,3.09-1.5,5.4-4.62,6.21l4.8,8.13h-3.12l-4.53-7.74h-4.92v7.74h-3.12v-21ZM530.64,261.52c0-2.49-1.5-3.93-4.53-3.93h-4.68v7.8h4.68c3.03,0,4.53-1.44,4.53-3.87Z"/>
    <path class="cls-8" d="M536.61,254.86h13.65v2.73h-10.53v6.3h9.63v2.49h-9.63v6.75h10.83v2.73h-13.95v-21Z"/>
    <path class="cls-8" d="M559.62,265.36c0-6.78,4.02-10.77,9.69-10.77s9.66,3.99,9.66,10.77-4.02,10.8-9.66,10.8-9.69-4.02-9.69-10.8ZM575.79,265.36c0-5.22-2.64-8.07-6.48-8.07s-6.51,2.85-6.51,8.07,2.64,8.1,6.51,8.1,6.48-2.88,6.48-8.1Z"/>
    <path class="cls-8" d="M581.43,269.5h3.18c.12,2.25,1.62,4.02,5.1,4.02,3.12,0,4.74-1.38,4.74-3.54s-1.47-2.94-3.78-3.39l-2.82-.57c-3.57-.72-5.82-2.4-5.82-5.64,0-3.63,2.79-5.79,7.53-5.79s7.56,2.19,7.56,5.88h-3.18c-.03-1.98-1.56-3.24-4.44-3.24-3.03,0-4.23,1.41-4.23,3.15,0,1.47.9,2.61,3.39,3.12l2.7.54c4.2.84,6.36,2.55,6.36,5.91,0,4.08-3.21,6.21-8.04,6.21-5.31,0-8.25-2.61-8.25-6.66Z"/>
    <path class="cls-8" d="M607.53,254.86h3.84l7.02,16.86,7.02-16.86h3.84v21h-3.12v-15.42h-.12l-6.39,15.42h-2.46l-6.42-15.42h-.09v15.42h-3.12v-21Z"/>
    <path class="cls-8" d="M632.58,267.91v-13.05h3.12v12.84c0,3.72,1.92,5.73,5.13,5.73s5.13-2.01,5.13-5.73v-12.84h3.15v13.05c0,5.4-3.3,8.25-8.28,8.25s-8.25-2.85-8.25-8.25Z"/>
    <path class="cls-8" d="M652.44,254.86h3.36l10.26,16.11h.09v-16.11h3.12v21h-3.48l-10.17-15.96h-.06v15.96h-3.12v-21Z"/>
    <path class="cls-8" d="M672.78,254.86h7.17c6.6,0,9.93,3.78,9.93,10.5s-3.33,10.5-9.93,10.5h-7.17v-21ZM686.7,265.36c0-5.31-2.07-7.77-7.05-7.77h-3.75v15.54h3.75c4.98,0,7.05-2.49,7.05-7.77Z"/>
    <path class="cls-8" d="M692.3,265.36c0-6.78,4.02-10.77,9.69-10.77s9.66,3.99,9.66,10.77-4.02,10.8-9.66,10.8-9.69-4.02-9.69-10.8ZM708.47,265.36c0-5.22-2.64-8.07-6.48-8.07s-6.51,2.85-6.51,8.07,2.64,8.1,6.51,8.1,6.48-2.88,6.48-8.1Z"/>
    <path class="cls-8" d="M714.11,269.5h3.18c.12,2.25,1.62,4.02,5.1,4.02,3.12,0,4.74-1.38,4.74-3.54s-1.47-2.94-3.78-3.39l-2.82-.57c-3.57-.72-5.82-2.4-5.82-5.64,0-3.63,2.79-5.79,7.53-5.79s7.56,2.19,7.56,5.88h-3.18c-.03-1.98-1.56-3.24-4.44-3.24-3.03,0-4.23,1.41-4.23,3.15,0,1.47.9,2.61,3.39,3.12l2.7.54c4.2.84,6.36,2.55,6.36,5.91,0,4.08-3.21,6.21-8.04,6.21-5.31,0-8.25-2.61-8.25-6.66Z"/>
    <path class="cls-8" d="M740.21,254.86h7.17c6.6,0,9.93,3.78,9.93,10.5s-3.33,10.5-9.93,10.5h-7.17v-21ZM754.13,265.36c0-5.31-2.07-7.77-7.05-7.77h-3.75v15.54h3.75c4.98,0,7.05-2.49,7.05-7.77Z"/>
    <path class="cls-8" d="M759.74,265.36c0-6.78,4.02-10.77,9.69-10.77s9.66,3.99,9.66,10.77-4.02,10.8-9.66,10.8-9.69-4.02-9.69-10.8ZM775.91,265.36c0-5.22-2.64-8.07-6.48-8.07s-6.51,2.85-6.51,8.07,2.64,8.1,6.51,8.1,6.48-2.88,6.48-8.1Z"/>
    <path class="cls-8" d="M794.45,257.65h-6.45v-2.79h16.02v2.79h-6.45v18.21h-3.12v-18.21Z"/>
    <path class="cls-8" d="M806.48,254.86h7.92c5.13,0,7.59,2.61,7.59,6.66,0,3.09-1.5,5.4-4.62,6.21l4.8,8.13h-3.12l-4.53-7.74h-4.92v7.74h-3.12v-21ZM818.81,261.52c0-2.49-1.5-3.93-4.53-3.93h-4.68v7.8h4.68c3.03,0,4.53-1.44,4.53-3.87Z"/>
    <path class="cls-8" d="M831.47,254.86h3.9l7.89,21h-3.27l-1.77-4.83h-9.6l-1.77,4.83h-3.27l7.89-21ZM837.35,268.66l-3.84-10.53h-.18l-3.84,10.53h7.86Z"/>
    <path class="cls-8" d="M845.57,254.86h8.01c4.47,0,6.48,2.1,6.48,5.13,0,2.22-1.05,3.69-2.91,4.35,2.73.75,4.29,2.58,4.29,5.43,0,3.48-2.43,6.09-7.68,6.09h-8.19v-21ZM856.85,260.38c0-1.89-1.26-2.88-3.48-2.88h-4.68v5.85h4.68c2.22,0,3.48-1.02,3.48-2.97ZM858.14,269.56c0-2.1-1.41-3.57-4.56-3.57h-4.89v7.2h4.89c3.15,0,4.56-1.53,4.56-3.63Z"/>
    <path class="cls-8" d="M870.29,254.86h3.9l7.89,21h-3.27l-1.77-4.83h-9.6l-1.77,4.83h-3.27l7.89-21ZM876.17,268.66l-3.84-10.53h-.18l-3.84,10.53h7.86Z"/>
    <path class="cls-8" d="M884.39,254.86h3.12v18.27h10.41v2.73h-13.53v-21Z"/>
    <path class="cls-8" d="M913.79,266.8h-10.17v9.06h-3.12v-21h3.12v9.36h10.17v-9.36h3.09v21h-3.09v-9.06Z"/>
    <path class="cls-8" d="M919.79,265.36c0-6.78,4.02-10.77,9.69-10.77s9.66,3.99,9.66,10.77-4.02,10.8-9.66,10.8-9.69-4.02-9.69-10.8ZM935.96,265.36c0-5.22-2.64-8.07-6.48-8.07s-6.51,2.85-6.51,8.07,2.64,8.1,6.51,8.1,6.48-2.88,6.48-8.1Z"/>
  </g>
  <g>
    <g>
      <path class="cls-2" d="M97.85,80.9v74.66c0,15.82-8.53,24-22.93,25.78v16.71h-15.29v-16.53c-14.93-1.78-23.64-9.95-23.64-25.95v-74.66c0-18.49,11.38-26.31,30.22-26.31h1.42c18.84,0,30.22,8,30.22,26.31ZM81.14,84.1c0-11.02-4.98-14.76-14.22-14.76s-14.22,3.73-14.22,14.76v68.26c0,11.02,4.98,14.76,14.22,14.76s14.22-3.73,14.22-14.76v-68.26Z"/>
      <path class="cls-3" d="M183.13,155.56c0,18.67-11.02,26.31-29.86,26.31h-.71c-18.84,0-29.86-7.47-29.86-26.31V56.01h16.71v96.35c0,11.02,4.26,14.76,13.51,14.76s13.51-3.73,13.51-14.76V56.01h16.71v99.55Z"/>
      <path class="cls-3" d="M208.67,180.44V56.01h52.44v14.76h-35.73v39.11h30.22v14.93h-30.22v40.88h36.26v14.76h-52.97Z"/>
      <path class="cls-3" d="M316.7,56.01h51.73v14.76h-35.02v40h29.51v14.93h-29.51v54.75h-16.71V56.01Z"/>
      <path class="cls-3" d="M417.09,54.59h1.42c18.84,0,30.22,8,30.22,26.31v74.66c0,18.31-11.38,26.31-30.22,26.31h-1.42c-18.84,0-30.22-8-30.22-26.31v-74.66c0-18.49,11.38-26.31,30.22-26.31ZM417.8,167.11c9.24,0,14.22-3.73,14.22-14.76v-68.26c0-11.02-4.98-14.76-14.22-14.76s-14.22,3.73-14.22,14.76v68.26c0,11.02,4.98,14.76,14.22,14.76Z"/>
      <path class="cls-3" d="M522.45,180.44l-17.24-51.02h-14.58v51.02h-16.71V56.01h31.11c18.84,0,30.22,8,30.22,26.31v20.8c0,12.44-5.33,20.09-14.58,23.82l18.84,53.51h-17.07ZM490.63,114.85h13.69c9.24,0,14.22-3.73,14.22-14.75v-14.58c0-11.02-4.98-14.76-14.22-14.76h-13.69v44.08Z"/>
      <path class="cls-1" d="M602.39,103.12v-19.02c0-10.84-4.62-14.76-13.69-14.76s-13.69,3.91-13.69,14.76v68.26c0,10.84,4.62,14.76,13.69,14.76s13.69-3.91,13.69-14.76v-22.04h16.71v25.24c0,16.71-9.24,24.71-24.71,26.13v7.29c0,12.09-4.8,15.64-13.86,15.64-3.56,0-7.29-.71-9.78-1.96l-2.49-9.6h8.36c3.73,0,4.98-1.07,4.98-4.8v-6.75c-14.58-1.78-23.29-9.6-23.29-25.95v-74.66c0-17.95,11.38-26.31,30.22-26.31h.35c18.84,0,30.22,8.36,30.22,26.31v22.22h-16.71Z"/>
      <path class="cls-3" d="M683.4,151.11h-26.66l-5.33,29.33h-16.18l24.71-124.43h20.62l25.07,124.43h-17.07l-5.16-29.33ZM680.73,137.07l-10.67-60.08-10.84,60.08h21.51Z"/>
      <path class="cls-9" d="M77.82,81.35v71.01c0,3.59-.59,6.3-1.75,8.05l-1.9,2.89,20.57,12.41,1.76-2.63c3.1-4.63,4.67-10.52,4.67-17.52v-78.68l-23.35,4.47Z"/>
      <rect class="cls-9" x="163.1" y="52.4" width="23.35" height="80.55"/>
      <rect class="cls-9" x="222.06" y="106.55" width="36.86" height="21.57"/>
      <rect class="cls-9" x="313.38" y="52.69" width="58.37" height="21.39"/>
      <path class="cls-9" d="M428.7,115.8v36.56c0,9.56-4,11.44-10.9,11.44h-3.32v21.39h4.03c21.63,0,33.54-10.52,33.54-29.63v-39.76h-23.35Z"/>
      <path class="cls-3" d="M602.39,103.12v-19.02c0-10.84-4.62-14.76-13.69-14.76s-13.69,3.91-13.69,14.76v68.26c0,10.84,4.62,14.76,13.69,14.76s13.69-3.91,13.69-14.76v-22.04h16.71v25.24c0,16.71-9.24,24.71-24.71,26.13v7.29c0,12.09-4.8,15.64-13.86,15.64-3.56,0-7.29-.71-9.78-1.96l-2.49-9.6h8.36c3.73,0,4.98-1.07,4.98-4.8v-6.75c-14.58-1.78-23.29-9.6-23.29-25.95v-74.66c0-17.95,11.38-26.31,30.22-26.31h.35c18.84,0,30.22,8.36,30.22,26.31v22.22h-16.71Z"/>
      <path class="cls-9" d="M501.46,132.31v-20.25h3.13c.7,0,.95-.03,1.48-.09l.33-.03c4.16-.45,6.93-2.04,7.89-5.5l.64-2.3,23.8.09c0,24.1-10.85,28.08-37.27,28.08Z"/>
      <path class="cls-9" d="M588.71,51.27v3.32h0v14.75h0v3.32c6.72,0,10.37,1.82,10.37,11.44v22.34h23.35v-25.54c0-19.11-11.97-29.63-33.72-29.63Z"/>
      <polygon class="cls-9" points="692.76 99.8 670.74 99.8 685.78 183.76 709.68 183.76 692.76 99.8"/>
    </g>
    <g>
      <path class="cls-5" d="M765.5,180.44V56.01h52.44v14.76h-35.73v39.11h30.22v14.93h-30.22v40.88h36.26v14.76h-52.97ZM815.45,22.23l-19.55,24h-12.44l12.44-24h19.55Z"/>
      <path class="cls-4" d="M873.53,180.44V56.01h52.44v14.76h-35.73v39.11h30.22v14.93h-30.22v40.88h36.26v14.76h-52.97Z"/>
      <path class="cls-5" d="M988.13,99.91v-16.89c0-9.95-4.8-13.86-13.33-13.86s-13.33,3.91-13.33,13.86v8.53c0,7.47,2.67,10.13,9.78,14.22l16.18,8.89c10.67,6.04,17.42,12.09,17.42,24v17.24c0,18.67-10.84,25.95-29.69,25.95h-.36c-18.84,0-29.69-7.11-29.69-25.95v-21.16h16.35v18.31c0,9.78,4.8,14.22,13.51,14.22s13.51-4.44,13.51-14.22v-9.78c0-7.47-2.67-10.67-9.96-14.76l-16-8.89c-11.38-6.58-17.42-11.91-17.42-23.82v-15.64c0-17.96,12.44-25.6,29.51-25.6h.36c17.06,0,29.51,7.64,29.51,25.6v19.73h-16.35Z"/>
      <path class="cls-5" d="M1068.43,99.91v-16.89c0-9.95-4.8-13.86-13.33-13.86s-13.33,3.91-13.33,13.86v8.53c0,7.47,2.67,10.13,9.78,14.22l16.18,8.89c10.67,6.04,17.42,12.09,17.42,24v17.24c0,18.67-10.84,25.95-29.69,25.95h-.36c-18.84,0-29.69-7.11-29.69-25.95v-21.16h16.35v18.31c0,9.78,4.8,14.22,13.51,14.22s13.51-4.44,13.51-14.22v-9.78c0-7.47-2.67-10.67-9.96-14.76l-16-8.89c-11.38-6.58-17.42-11.91-17.42-23.82v-15.64c0-17.96,12.44-25.6,29.51-25.6h.36c17.06,0,29.51,7.64,29.51,25.6v19.73h-16.35Z"/>
      <path class="cls-5" d="M1147.84,151.11h-26.66l-5.33,29.33h-16.18l24.71-124.43h20.62l25.07,124.43h-17.07l-5.16-29.33ZM1145.18,137.07l-10.67-60.08-10.84,60.08h21.51Z"/>
      <path class="cls-5" d="M1200.76,131.2c0-8.71,3.38-15.64,11.38-22.93,4.09-3.56,8-8.18,8-14.4v-11.56c0-10.67-4.62-13.69-12.44-13.69s-11.91,3.02-11.91,13.69v17.6h-16v-19.73c0-17.96,9.24-25.6,28.08-25.6h.36c18.84,0,28.09,7.64,28.09,25.6v14.58c0,13.51-6.93,18.84-12.27,23.29-5.87,4.8-10.13,9.6-10.13,18.13v12.62h-13.15v-17.6ZM1215.7,180.44h-16.71v-19.55h16.71v19.55Z"/>
      <rect class="cls-9" x="762.18" y="52.68" width="59.08" height="21.39"/>
      <rect class="cls-9" x="870.21" y="162.36" width="59.61" height="21.39"/>
      <path class="cls-9" d="M974.98,51.26h-3.28l-.26,21.22h3.36c7.2,0,10.01,2.96,10.01,10.54v20.21h22.99v-23.05c0-18.38-11.96-28.92-32.83-28.92Z"/>
      <path class="cls-9" d="M1069.36,111.78l-2.74-1.55-12.49,19.48,3.07,1.72c6.64,3.73,8.26,6.05,8.26,11.86v9.78c0,7.64-3.05,10.9-10.19,10.9h-3.28l-.26,21.22h3.72c21.9,0,33.01-9.85,33.01-29.27v-17.24c0-13.33-7.64-20.39-19.1-26.88Z"/>
      <polygon class="cls-9" points="1147.72 52.68 1131.09 52.68 1131.19 76.99 1138.42 117.99 1160.87 117.99 1147.72 52.68"/>
      <path class="cls-9" d="M1216.99,91.44l-.2,3.11c-.24,3.81-2.41,7.37-6.89,11.27-8.62,7.85-12.46,15.68-12.46,25.39v20.92h19.79v-15.94c0-6.95,3.14-10.83,8.94-15.58l.49-.41c5.48-4.55,12.98-10.77,12.98-25.43v-3.32h-22.64Z"/>
    </g>
  </g>
</svg>